<?xml version="1.0" encoding="UTF-8"?>
<svg width="225.56" height="368.02" version="1.1" viewBox="0 0 59.68 97.371" xmlns="http://www.w3.org/2000/svg" xmlns:cc="http://creativecommons.org/ns#" xmlns:dc="http://purl.org/dc/elements/1.1/" xmlns:rdf="http://www.w3.org/1999/02/22-rdf-syntax-ns#">
<title>Rocket</title>
<metadata>
<rdf:RDF>
<cc:Work rdf:about="">
<dc:format>image/svg+xml</dc:format>
<dc:type rdf:resource="http://purl.org/dc/dcmitype/StillImage"/>
<dc:title>Rocket</dc:title>
<dc:date>2021/04/04</dc:date>
<dc:creator>
<cc:Agent>
<dc:title>hentai-chan</dc:title>
</cc:Agent>
</dc:creator>
<dc:rights>
<cc:Agent>
<dc:title>hentai-chan</dc:title>
</cc:Agent>
</dc:rights>
<cc:license rdf:resource=""/>
</cc:Work>
</rdf:RDF>
</metadata>
<g transform="translate(-234.74 16.269)">
<g transform="translate(293.77 -376.1)">
<path transform="scale(.26458)" d="m-110.31 1360.7c-44.765 44.1-49.789 138.86-49.789 138.86l0.09961 117.3c14.688-28.418 14.689-73.562 14.689-73.562s3.532-51.182 35-75c31.468 23.818 35 75 35 75s1e-3 45.145 14.689 73.562l0.09961-117.3s-5.0252-94.761-49.789-138.86z" fill="#972c1b"/>
<path transform="scale(.26458)" d="m-110 1360c-35.964 44.1-40 138.86-40 138.86l0.0606 87.566c4.6171-22.293 4.6289-43.168 4.6289-43.168s3.532-51.182 35-75c31.468 23.818 35 75 35 75s0.0024 22.725 5.248 46.078l0.06245-90.477s-4.0373-94.761-40-138.86z" fill="#c33422"/>
<path transform="scale(.26458)" d="m-110 1360c-24.724 42.079-27.5 132.5-27.5 132.5h0.0547v15.701c5.1318-14.194 13.513-29.629 27.135-39.939 14.192 10.742 22.69 27.043 27.756 41.711v-17.449l0.054678-0.0215s-2.775-90.421-27.5-132.5z" fill="#dc463a"/>
<path d="m-29.186 388.48c-8.3259 6.3019-9.2604 19.844-9.2604 19.844v42.333h18.521v-42.333s-0.9345-13.542-9.2604-19.844z" fill="#b9bfc6"/>
<path d="m-29.186 391.58c-5.9471 5.987-6.6146 18.852-6.6146 18.852v40.218h13.229v-40.218s-0.6675-12.865-6.6146-18.852z" fill="#eaebed"/>
<rect x="-56.003" y="454.56" width="14.993" height="2.6458" rx=".52504" ry=".52504" fill="#aab4bb" opacity=".99575"/>
<rect x="-17.362" y="454.56" width="14.993" height="2.6458" rx=".52504" ry=".52504" fill="#aab4bb" opacity=".99575"/>
<path d="m-48.507 376.9c-5.5507 6.5242-6.1733 20.544-6.1733 20.544v57.116h12.347v-57.116s-0.62313-14.019-6.1738-20.544z" fill="#b9bfc6"/>
<path d="m-48.507 379.61c-4.3612 6.2963-4.8504 19.826-4.8504 19.826v55.121h9.7012v-55.121s-0.4896-13.53-4.8508-19.826z" fill="#eaebed"/>
<path d="m-9.866 376.9c-5.5507 6.5242-6.1733 20.544-6.1733 20.544v57.116h12.347v-57.116s-0.62313-14.019-6.1738-20.544z" fill="#b9bfc6"/>
<path d="m-9.866 379.61c-4.3612 6.2963-4.8504 19.826-4.8504 19.826v55.121h9.7012v-55.121s-0.4896-13.53-4.8508-19.826z" fill="#eaebed"/>
<path transform="scale(.26458)" d="m-145.31 1564.4s-2e-4 2.4501-0.19922 6.5137c-3e-5 7e-4 4e-5 0 0 0-0.0663 1.3541-0.15554 2.8873-0.27343 4.5684-5e-5 7e-4 5e-5 0 0 0-0.23588 3.3633-0.5885 7.3198-1.1191 11.619-0.24818 2.0108-0.54148 4.1005-0.87305 6.2363-0.023 0.148-0.0411 0.2911-0.0645 0.4395-1.1e-4 6e-4 1e-4 0 0 0-1.0836 6.8726-2.6306 14.24-4.8418 21.264-0.36858 1.1706-0.75576 2.3309-1.1621 3.4785-2.1e-4 6e-4 2.1e-4 0 0 0-0.8127 2.2953-1.7029 4.5365-2.6777 6.6933-0.48745 1.0784-0.9966 2.1339-1.5274 3.166-2.6e-4 6e-4 2.7e-4 0 0 0-0.79611 1.5482-1.6423 3.0387-2.541 4.4609-0.29959 0.4741-0.60457 0.9403-0.91602 1.3985-3e-4 4e-4 3e-4 0 0 0-0.62259 0.9159-1.27 1.7982-1.9414 2.6445-3.2e-4 4e-4 3.2e-4 0 0 0-0.67141 0.8464-1.3678 1.6547-2.0898 2.4238-3.3e-4 4e-4 3.3e-4 0 0 0-0.36089 0.3843-0.72963 0.7575-1.1035 1.1211-0.37454 0.3642-0.75478 0.7181-1.1426 1.0605-0.38747 0.3422-0.78266 0.6728-1.1836 0.9922-0.40054 0.3191-0.80843 0.6284-1.2226 0.9238-0.41465 0.2958-0.83705 0.5786-1.2656 0.8496-0.42812 0.2708-0.86438 0.5303-1.3066 0.7754-0.8855 0.4909-1.7986 0.9301-2.7422 1.3125-0.61905 0.251-1.2262 0.5234-1.8262 0.8047-0.12605 0.059-0.25173 0.1193-0.37695 0.1797-0.52954 0.2555-1.0517 0.5208-1.5664 0.7988-0.0771 0.042-0.1557 0.081-0.23242 0.1231-0.5599 0.3074-1.1099 0.63-1.6523 0.9629-0.13862 0.085-0.27462 0.173-0.41211 0.2597-0.43 0.2711-0.85439 0.5496-1.2734 0.836-0.13446 0.092-0.27095 0.1819-0.4043 0.2754-0.5089 0.3565-1.0092 0.7236-1.502 1.1015-0.11835 0.091-0.23413 0.1853-0.35156 0.2774-0.31706 0.2483-0.62909 0.503-0.93946 0.7597-0.68207 0.5647-1.3535 1.1433-2.0039 1.7461-6.8e-4 7e-4 -1e-3 0-2e-3 0-0.69183 0.6413-1.3628 1.3061-2.0195 1.9863-0.10522 0.109-0.20816 0.2202-0.3125 0.3301-0.56813 0.5986-1.124 1.2095-1.666 1.834-0.081 0.093-0.16369 0.1854-0.24414 0.2793-0.62529 0.7297-1.2352 1.4745-1.8262 2.2344-0.57999 0.7457-1.1398 1.507-1.6875 2.2773-0.073 0.1027-0.14629 0.2055-0.21875 0.3086-0.54103 0.7697-1.0702 1.5487-1.5801 2.3379-0.52187 0.8076-1.0255 1.6238-1.5156 2.4472-0.0653 0.1098-0.12863 0.2201-0.19336 0.3301-0.42972 0.7297-0.84833 1.465-1.2539 2.2032-0.0547 0.099-0.10984 0.1991-0.16407 0.2988-0.44362 0.8148-0.87397 1.6326-1.2891 2.4531-0.57739 1.1425-1.1228 2.2882-1.6465 3.4316-0.11123 0.2426-0.21926 0.4844-0.32813 0.7266-0.49308 1.0987-0.96834 2.1965-1.4141 3.2832-0.0123 0.03-0.0268 0.06-0.0391 0.09-0.50817 1.2419-0.9866 2.4721-1.4356 3.6835-1.3555 3.6578-2.4477 7.1413-3.3144 10.238-0.28893 1.0324-0.55265 2.0224-0.79297 2.961h65.678z" fill="#eaebed"/>
<path transform="scale(.26458)" d="m-145.31 1543.3s-1.9e-4 80.002-34.648 94.047c-25.657 10.401-36.948 44.127-41.09 60.953-8.8e-4 0-1e-3 0.01-2e-3 0.01-1.45 5.8913-2.041 9.7461-2.041 9.7461h77.781v-9.7558h-65.678c3.8451-15.018 13.73-43.043 35.484-51.861 30.194-12.239 30.193-81.957 30.193-81.957z" fill="#313340"/>
<path transform="scale(.26458)" d="m-132.81 1644.1c-15.734 11.909-17.5 37.5-17.5 37.5v35.609h35v-35.609s-1.766-25.591-17.5-37.5z" fill="#cdcfd0"/>
<path transform="scale(.26458)" d="m-132.81 1650.8c-11.239 10.889-12.5 34.287-12.5 34.287v32.184h25v-32.184s-1.2614-23.398-12.5-34.287z" fill="#eaebed"/>
<g transform="matrix(-1 0 0 1 -58.373 -3.9687e-5)">
<path transform="scale(.26458)" d="m-145.31 1564.4s-2e-4 2.4501-0.19922 6.5137c-3e-5 7e-4 4e-5 0 0 0-0.0663 1.3541-0.15554 2.8873-0.27343 4.5684-5e-5 7e-4 5e-5 0 0 0-0.23588 3.3633-0.5885 7.3198-1.1191 11.619-0.24818 2.0108-0.54148 4.1005-0.87305 6.2363-0.023 0.148-0.0411 0.2911-0.0645 0.4395-1.1e-4 6e-4 1e-4 0 0 0-1.0836 6.8726-2.6306 14.24-4.8418 21.264-0.36858 1.1706-0.75576 2.3309-1.1621 3.4785-2.1e-4 6e-4 2.1e-4 0 0 0-0.8127 2.2953-1.7029 4.5365-2.6777 6.6933-0.48745 1.0784-0.9966 2.1339-1.5274 3.166-2.6e-4 6e-4 2.7e-4 0 0 0-0.79611 1.5482-1.6423 3.0387-2.541 4.4609-0.29959 0.4741-0.60457 0.9403-0.91602 1.3985-3e-4 4e-4 3e-4 0 0 0-0.62259 0.9159-1.27 1.7982-1.9414 2.6445-3.2e-4 4e-4 3.2e-4 0 0 0-0.67141 0.8464-1.3678 1.6547-2.0898 2.4238-3.3e-4 4e-4 3.3e-4 0 0 0-0.36089 0.3843-0.72963 0.7575-1.1035 1.1211-0.37454 0.3642-0.75478 0.7181-1.1426 1.0605-0.38747 0.3422-0.78266 0.6728-1.1836 0.9922-0.40054 0.3191-0.80843 0.6284-1.2226 0.9238-0.41465 0.2958-0.83705 0.5786-1.2656 0.8496-0.42812 0.2708-0.86438 0.5303-1.3066 0.7754-0.8855 0.4909-1.7986 0.9301-2.7422 1.3125-0.61905 0.251-1.2262 0.5234-1.8262 0.8047-0.12605 0.059-0.25173 0.1193-0.37695 0.1797-0.52954 0.2555-1.0517 0.5208-1.5664 0.7988-0.0771 0.042-0.1557 0.081-0.23242 0.1231-0.5599 0.3074-1.1099 0.63-1.6523 0.9629-0.13862 0.085-0.27462 0.173-0.41211 0.2597-0.43 0.2711-0.85439 0.5496-1.2734 0.836-0.13446 0.092-0.27095 0.1819-0.4043 0.2754-0.5089 0.3565-1.0092 0.7236-1.502 1.1015-0.11835 0.091-0.23413 0.1853-0.35156 0.2774-0.31706 0.2483-0.62909 0.503-0.93946 0.7597-0.68207 0.5647-1.3535 1.1433-2.0039 1.7461-6.8e-4 7e-4 -1e-3 0-2e-3 0-0.69183 0.6413-1.3628 1.3061-2.0195 1.9863-0.10522 0.109-0.20816 0.2202-0.3125 0.3301-0.56813 0.5986-1.124 1.2095-1.666 1.834-0.081 0.093-0.16369 0.1854-0.24414 0.2793-0.62529 0.7297-1.2352 1.4745-1.8262 2.2344-0.57999 0.7457-1.1398 1.507-1.6875 2.2773-0.073 0.1027-0.14629 0.2055-0.21875 0.3086-0.54103 0.7697-1.0702 1.5487-1.5801 2.3379-0.52187 0.8076-1.0255 1.6238-1.5156 2.4472-0.0653 0.1098-0.12863 0.2201-0.19336 0.3301-0.42972 0.7297-0.84833 1.465-1.2539 2.2032-0.0547 0.099-0.10984 0.1991-0.16407 0.2988-0.44362 0.8148-0.87397 1.6326-1.2891 2.4531-0.57739 1.1425-1.1228 2.2882-1.6465 3.4316-0.11123 0.2426-0.21926 0.4844-0.32813 0.7266-0.49308 1.0987-0.96834 2.1965-1.4141 3.2832-0.0123 0.03-0.0268 0.06-0.0391 0.09-0.50817 1.2419-0.9866 2.4721-1.4356 3.6835-1.3555 3.6578-2.4477 7.1413-3.3144 10.238-0.28893 1.0324-0.55265 2.0224-0.79297 2.961h65.678z" fill="#eaebed"/>
<path transform="scale(.26458)" d="m-145.31 1543.3s-1.9e-4 80.002-34.648 94.047c-25.657 10.401-36.948 44.127-41.09 60.953-8.8e-4 0-1e-3 0.01-2e-3 0.01-1.45 5.8913-2.041 9.7461-2.041 9.7461h77.781v-9.7558h-65.678c3.8451-15.018 13.73-43.043 35.484-51.861 30.194-12.239 30.193-81.957 30.193-81.957z" fill="#313340"/>
</g>
<path transform="scale(.26458)" d="m-87.811 1644.1c-15.734 11.909-17.5 37.5-17.5 37.5v35.609h35v-35.609s-1.766-25.591-17.5-37.5z" fill="#cdcfd0"/>
<path transform="scale(.26458)" d="m-87.811 1650.8c-11.239 10.889-12.5 34.287-12.5 34.287v32.184h25v-32.184s-1.2614-23.398-12.5-34.287z" fill="#eaebed"/>
<path transform="scale(.26458)" d="m-105.31 1717.2v4.3906c0 2.77 2.23 5 5 5h25c2.77 0 5-2.23 5-5v-4.3906z" fill="#313340" opacity=".99575"/>
<path transform="scale(.26458)" d="m-150.31 1717.2v4.3906c0 2.77 2.23 5 5 5h25c2.77 0 5-2.23 5-5v-4.3906z" fill="#313340" opacity=".99575"/>
<path d="m-29.193 399.49c-2.7664 3e-3 -5.39 1.2281-7.166 3.3492l2.3906 2.0019c1.1737-1.402 2.9036-2.2183 4.732-2.2329 0.01654-5e-5 0.03307-5e-5 0.04961 0 1.8456 1.6e-4 3.5963 0.8178 4.7811 2.2329l2.3911-2.0019c-1.7773-2.1227-4.4036-3.3491-7.1722-3.3492z" fill="#313340"/>
<path d="m-42.333 399.06h-12.347v3.106h12.347z" fill="#313340"/>
<path d="m-3.6922 399.06h-12.347v3.106h12.347z" fill="#313340"/>
</g>
</g>
</svg>
