<?xml version="1.0" encoding="UTF-8" standalone="no"?>
<svg
   xmlns:dc="http://purl.org/dc/elements/1.1/"
   xmlns:cc="http://creativecommons.org/ns#"
   xmlns:rdf="http://www.w3.org/1999/02/22-rdf-syntax-ns#"
   xmlns:svg="http://www.w3.org/2000/svg"
   xmlns="http://www.w3.org/2000/svg"
   xmlns:xlink="http://www.w3.org/1999/xlink"
   xmlns:sodipodi="http://sodipodi.sourceforge.net/DTD/sodipodi-0.dtd"
   xmlns:inkscape="http://www.inkscape.org/namespaces/inkscape"
   width="500.00003"
   height="499.99997"
   viewBox="0 0 132.29167 132.29166"
   version="1.1"
   id="svg1231"
   inkscape:version="1.0.2-2 (e86c870879, 2021-01-15)"
   sodipodi:docname="webicon.svg"
   inkscape:export-filename="C:\Users\Stefan Greve\Desktop\clientwork\webicon.png"
   inkscape:export-xdpi="96"
   inkscape:export-ydpi="96">
  <title
     id="title1109">Rocket OS Icon</title>
  <defs
     id="defs1225">
    <linearGradient
       inkscape:collect="always"
       id="linearGradient1483">
      <stop
         style="stop-color:#e53935;stop-opacity:1"
         offset="0"
         id="stop1479" />
      <stop
         style="stop-color:#ffee58;stop-opacity:1"
         offset="1"
         id="stop1481" />
    </linearGradient>
    <linearGradient
       inkscape:collect="always"
       id="linearGradient1475">
      <stop
         style="stop-color:#e53935;stop-opacity:1"
         offset="0"
         id="stop1471" />
      <stop
         style="stop-color:#ffee58;stop-opacity:1"
         offset="1"
         id="stop1473" />
    </linearGradient>
    <linearGradient
       inkscape:collect="always"
       id="linearGradient1125">
      <stop
         style="stop-color:#ffee58;stop-opacity:0.05"
         offset="0"
         id="stop1121" />
      <stop
         style="stop-color:#ffee58;stop-opacity:0;"
         offset="1"
         id="stop1123" />
    </linearGradient>
    <linearGradient
       inkscape:collect="always"
       id="linearGradient1115">
      <stop
         style="stop-color:#ffee58;stop-opacity:0.05"
         offset="0"
         id="stop1111" />
      <stop
         style="stop-color:#ffee58;stop-opacity:0;"
         offset="1"
         id="stop1113" />
    </linearGradient>
    <linearGradient
       inkscape:collect="always"
       id="linearGradient1105">
      <stop
         style="stop-color:#ffee58;stop-opacity:0.05"
         offset="0"
         id="stop1101" />
      <stop
         style="stop-color:#ffee58;stop-opacity:0;"
         offset="1"
         id="stop1103" />
    </linearGradient>
    <linearGradient
       inkscape:collect="always"
       id="linearGradient1095">
      <stop
         style="stop-color:#ffee58;stop-opacity:0.05"
         offset="0"
         id="stop1091" />
      <stop
         style="stop-color:#ffee58;stop-opacity:0;"
         offset="1"
         id="stop1093" />
    </linearGradient>
    <linearGradient
       inkscape:collect="always"
       id="linearGradient1085">
      <stop
         style="stop-color:#ffee58;stop-opacity:0.05"
         offset="0"
         id="stop1081" />
      <stop
         style="stop-color:#ffee58;stop-opacity:0"
         offset="1"
         id="stop1083" />
    </linearGradient>
    <linearGradient
       inkscape:collect="always"
       id="linearGradient2448">
      <stop
         style="stop-color:#370606;stop-opacity:1"
         offset="0"
         id="stop2444" />
      <stop
         style="stop-color:#1a237e;stop-opacity:1"
         offset="1"
         id="stop2446" />
    </linearGradient>
    <linearGradient
       inkscape:collect="always"
       xlink:href="#linearGradient2448"
       id="linearGradient2450"
       x1="66.304176"
       y1="-232.16667"
       x2="66.304176"
       y2="58.401997"
       gradientUnits="userSpaceOnUse"
       gradientTransform="translate(198.4375,198.43751)" />
    <radialGradient
       inkscape:collect="always"
       xlink:href="#linearGradient1085"
       id="radialGradient1087"
       cx="26.985901"
       cy="22.037512"
       fx="26.985901"
       fy="22.037512"
       r="7.9375"
       gradientUnits="userSpaceOnUse"
       gradientTransform="translate(198.4375,198.43751)" />
    <radialGradient
       inkscape:collect="always"
       xlink:href="#linearGradient1095"
       id="radialGradient1097"
       cx="10.052567"
       cy="51.467339"
       fx="10.052567"
       fy="51.467339"
       r="7.9375"
       gradientTransform="matrix(1,0,0,0.94545457,198.4375,212.69312)"
       gradientUnits="userSpaceOnUse" />
    <radialGradient
       inkscape:collect="always"
       xlink:href="#linearGradient1105"
       id="radialGradient1107"
       cx="54.189926"
       cy="43.562504"
       fx="54.189926"
       fy="43.562504"
       r="7.9375"
       gradientUnits="userSpaceOnUse"
       gradientTransform="translate(198.4375,198.43751)" />
    <radialGradient
       inkscape:collect="always"
       xlink:href="#linearGradient1115"
       id="radialGradient1117"
       cx="116.71579"
       cy="17.47579"
       fx="116.71579"
       fy="17.47579"
       r="7.9374995"
       gradientUnits="userSpaceOnUse"
       gradientTransform="translate(198.4375,198.43751)" />
    <radialGradient
       inkscape:collect="always"
       xlink:href="#linearGradient1125"
       id="radialGradient1127"
       cx="119.53156"
       cy="61.825184"
       fx="119.53156"
       fy="61.825184"
       r="7.9375"
       gradientUnits="userSpaceOnUse"
       gradientTransform="translate(198.4375,198.43751)" />
    <linearGradient
       inkscape:collect="always"
       xlink:href="#linearGradient1483"
       id="linearGradient1462"
       x1="47.151127"
       y1="109.97985"
       x2="47.151127"
       y2="132.29166"
       gradientUnits="userSpaceOnUse"
       gradientTransform="matrix(3.7795276,0,0,3.7795276,750,750.00003)" />
    <linearGradient
       inkscape:collect="always"
       xlink:href="#linearGradient1475"
       id="linearGradient1477"
       x1="60.192707"
       y1="111.15497"
       x2="60.192707"
       y2="132.29166"
       gradientUnits="userSpaceOnUse"
       gradientTransform="matrix(3.7795276,0,0,3.7795276,750,750.00003)" />
    <linearGradient
       inkscape:collect="always"
       xlink:href="#linearGradient1475"
       id="linearGradient1494"
       gradientUnits="userSpaceOnUse"
       x1="72.098961"
       y1="111.15497"
       x2="72.098961"
       y2="132.29166"
       gradientTransform="matrix(3.7795276,0,0,3.7795276,750,750.00003)" />
    <linearGradient
       inkscape:collect="always"
       xlink:href="#linearGradient1483"
       id="linearGradient1498"
       gradientUnits="userSpaceOnUse"
       x1="85.465576"
       y1="109.97985"
       x2="85.465576"
       y2="132.29166"
       gradientTransform="matrix(3.7795276,0,0,3.7795276,750,750.00003)" />
  </defs>
  <sodipodi:namedview
     id="base"
     pagecolor="#ffffff"
     bordercolor="#666666"
     borderopacity="1.0"
     inkscape:pageopacity="0.0"
     inkscape:pageshadow="2"
     inkscape:zoom="1"
     inkscape:cx="281.58493"
     inkscape:cy="228.99858"
     inkscape:document-units="px"
     inkscape:current-layer="layer4"
     showgrid="false"
     units="px"
     inkscape:window-width="1920"
     inkscape:window-height="1017"
     inkscape:window-x="1912"
     inkscape:window-y="-8"
     inkscape:window-maximized="1"
     showguides="false"
     inkscape:guide-bbox="true"
     inkscape:snap-grids="false"
     inkscape:snap-to-guides="true"
     inkscape:object-nodes="true"
     inkscape:snap-nodes="true"
     inkscape:document-rotation="0"
     inkscape:snap-object-midpoints="true"
     inkscape:snap-intersection-paths="true"
     inkscape:snap-midpoints="false"
     inkscape:snap-smooth-nodes="true"
     inkscape:object-paths="true"
     fit-margin-top="0"
     fit-margin-left="0"
     fit-margin-right="0"
     fit-margin-bottom="0">
    <inkscape:grid
       type="xygrid"
       id="grid1776"
       spacingx="2.6458333"
       spacingy="2.6458333"
       originx="-198.43749"
       originy="-198.43751" />
    <sodipodi:guide
       position="-198.4375,-198.4375"
       orientation="0,2000"
       id="guide954"
       inkscape:locked="false" />
    <sodipodi:guide
       position="330.72916,-198.4375"
       orientation="-2000,0"
       id="guide956"
       inkscape:locked="false" />
    <sodipodi:guide
       position="330.72916,330.72916"
       orientation="0,-2000"
       id="guide958"
       inkscape:locked="false" />
    <sodipodi:guide
       position="-198.4375,330.72916"
       orientation="2000,0"
       id="guide960"
       inkscape:locked="false" />
    <sodipodi:guide
       position="66.145832,66.145828"
       orientation="1,0"
       id="guide962"
       inkscape:locked="false" />
    <sodipodi:guide
       position="66.145832,66.145828"
       orientation="0,1"
       id="guide964"
       inkscape:locked="false" />
    <sodipodi:guide
       position="13.229162,13.229169"
       orientation="1,0"
       id="guide2452"
       inkscape:locked="false" />
    <sodipodi:guide
       position="119.06249,119.06251"
       orientation="1,0"
       id="guide2454"
       inkscape:locked="false" />
    <sodipodi:guide
       position="119.06248,13.229169"
       orientation="0,1"
       id="guide2456"
       inkscape:locked="false" />
    <sodipodi:guide
       position="13.229162,119.0625"
       orientation="0,1"
       id="guide2458"
       inkscape:locked="false" />
    <sodipodi:guide
       position="171.97915,105.83334"
       orientation="1,0"
       id="guide2462"
       inkscape:locked="false" />
    <sodipodi:guide
       position="158.74999,105.83334"
       orientation="1,0"
       id="guide2464"
       inkscape:locked="false" />
    <sodipodi:guide
       position="13.229152,79.374998"
       orientation="0,1"
       id="guide2495"
       inkscape:locked="false" />
    <sodipodi:guide
       position="13.229152,92.604168"
       orientation="0,1"
       id="guide2497"
       inkscape:locked="false" />
    <sodipodi:guide
       position="13.229152,105.83334"
       orientation="0,1"
       id="guide2499"
       inkscape:locked="false" />
    <sodipodi:guide
       position="52.916662,119.06251"
       orientation="1,0"
       id="guide2501"
       inkscape:locked="false" />
    <sodipodi:guide
       position="39.687492,119.06251"
       orientation="1,0"
       id="guide2503"
       inkscape:locked="false" />
    <sodipodi:guide
       position="26.458322,119.06251"
       orientation="1,0"
       id="guide2505"
       inkscape:locked="false" />
    <sodipodi:guide
       position="79.374992,13.229179"
       orientation="1,0"
       id="guide2507"
       inkscape:locked="false" />
    <sodipodi:guide
       position="92.604152,13.229179"
       orientation="1,0"
       id="guide2509"
       inkscape:locked="false" />
    <sodipodi:guide
       position="105.83332,13.229179"
       orientation="1,0"
       id="guide2511"
       inkscape:locked="false" />
    <sodipodi:guide
       position="13.229152,52.916669"
       orientation="0,1"
       id="guide2513"
       inkscape:locked="false" />
    <sodipodi:guide
       position="13.229152,39.687499"
       orientation="0,1"
       id="guide2515"
       inkscape:locked="false" />
    <sodipodi:guide
       position="13.229152,26.458339"
       orientation="0,1"
       id="guide2517"
       inkscape:locked="false" />
    <sodipodi:guide
       position="66.145832,66.145828"
       orientation="-0.70710678,0.70710678"
       id="guide2519"
       inkscape:locked="false" />
    <sodipodi:guide
       position="66.145832,66.145828"
       orientation="0.70710678,0.70710678"
       id="guide2521"
       inkscape:locked="false"
       inkscape:label=""
       inkscape:color="rgb(0,0,255)" />
    <sodipodi:guide
       position="-7.4999999e-06,132.29167"
       orientation="0,1"
       id="guide2523"
       inkscape:locked="false" />
    <sodipodi:guide
       position="132.29165,132.29168"
       orientation="1,0"
       id="guide2525"
       inkscape:locked="false" />
    <sodipodi:guide
       position="132.29165,-9.479774e-07"
       orientation="0,1"
       id="guide2527"
       inkscape:locked="false" />
    <sodipodi:guide
       position="-7.4999999e-06,-9.479774e-07"
       orientation="1,0"
       id="guide2529"
       inkscape:locked="false" />
  </sodipodi:namedview>
  <metadata
     id="metadata1228">
    <rdf:RDF>
      <cc:Work
         rdf:about="">
        <dc:format>image/svg+xml</dc:format>
        <dc:type
           rdf:resource="http://purl.org/dc/dcmitype/StillImage" />
        <dc:title>Rocket OS Icon</dc:title>
        <dc:date>2021/04/04</dc:date>
        <dc:creator>
          <cc:Agent>
            <dc:title>hentai-chan</dc:title>
          </cc:Agent>
        </dc:creator>
        <dc:rights>
          <cc:Agent>
            <dc:title>hentai-chan</dc:title>
          </cc:Agent>
        </dc:rights>
        <cc:license
           rdf:resource="" />
      </cc:Work>
    </rdf:RDF>
  </metadata>
  <g
     inkscape:groupmode="layer"
     id="layer2"
     inkscape:label="Icon"
     style="display:inline"
     transform="translate(-198.4375,-198.43751)">
    <g
       inkscape:groupmode="layer"
       id="layer4"
       inkscape:label="Background"
       style="display:inline;opacity:1">
      <rect
         style="display:inline;opacity:1;fill:url(#linearGradient2450);fill-opacity:1;fill-rule:evenodd;stroke:none;stroke-width:0.264583;stroke-miterlimit:4;stroke-dasharray:none;stroke-opacity:0.992157"
         id="rect1171"
         width="132.29167"
         height="132.29166"
         x="198.4375"
         y="-33.729164"
         ry="26.45833"
         transform="translate(0,232.16667)" />
      <path
         id="rect1011"
         style="display:inline;opacity:1;fill:#31314e;fill-opacity:0.349633;fill-rule:evenodd;stroke:none;stroke-width:0.999999;stroke-miterlimit:4;stroke-dasharray:none;stroke-opacity:0.992157"
         d="M 999.5957,950.5 C 899.08646,950.636 805.34675,1001.1783 750,1085.0762 V 1150 c 0,37.5343 20.4767,70.1052 50.91016,87.2129 C 807.65408,1132.213 894.78372,1050.5 1000,1050.5 c 105.2163,0 192.3459,81.713 199.0898,186.7129 C 1229.5233,1220.1052 1250,1187.5343 1250,1150 v -64.9238 C 1194.5743,1001.0587 1100.6526,950.50026 1000,950.5 Z m -198.60742,286.7578 c -0.0781,-0.043 0,0 0,0 z"
         sodipodi:nodetypes="ccscscscsccccc"
         transform="scale(0.26458333)" />
      <path
         id="rect1021"
         style="display:inline;opacity:1;fill:#3b3b5e;fill-opacity:0.35;fill-rule:evenodd;stroke:none;stroke-width:0.999999;stroke-miterlimit:4;stroke-dasharray:none;stroke-opacity:0.992157"
         d="M 1000,1050.5 A 199.5,199.5 0 0 0 800.91016,1237.2148 C 815.39575,1245.3575 832.13467,1250 850,1250 h 50.5 a 99.500001,99.500001 0 0 1 99.2207,-99.5 99.500001,99.500001 0 0 1 0.2793,0 99.500001,99.500001 0 0 1 99.5,99.5 h 50.5 c 17.8653,0 34.6043,-4.6425 49.0898,-12.7852 A 199.5,199.5 0 0 0 1000,1050.5 Z"
         transform="scale(0.26458333)" />
      <path
         id="rect1026"
         style="display:inline;opacity:1;fill:#45456d;fill-opacity:0.35;fill-rule:evenodd;stroke:none;stroke-width:0.999999;stroke-miterlimit:4;stroke-dasharray:none;stroke-opacity:0.992157"
         d="M 999.7207,1150.5 A 99.500002,99.500002 0 0 0 900.5,1250 h 199 a 99.500002,99.500002 0 0 0 -99.5,-99.5 99.500002,99.500002 0 0 0 -0.2793,0 z"
         transform="scale(0.26458333)" />
    </g>
    <g
       inkscape:groupmode="layer"
       id="layer5"
       inkscape:label="Stars"
       style="display:inline"
       sodipodi:insensitive="true">
      <circle
         style="fill:#ffee58;fill-opacity:1;stroke:none;stroke-width:0.264999"
         id="circle2825"
         cx="315.15329"
         cy="215.9133"
         r="1.984375" />
      <ellipse
         style="display:inline;opacity:1;fill:url(#radialGradient1097);fill-opacity:1;stroke-width:0.264998"
         id="path1089"
         cx="208.49007"
         cy="261.35315"
         rx="7.9375"
         ry="7.5045457" />
      <circle
         style="fill:#ffee58;fill-opacity:1;stroke:none;stroke-width:0.264998"
         id="circle2827"
         cx="208.49007"
         cy="261.35315"
         r="1.5875" />
      <circle
         style="fill:#ffee58;fill-opacity:1;stroke:none;stroke-width:0.264998"
         id="circle2829"
         cx="225.4234"
         cy="220.47502"
         r="0.92604166" />
      <circle
         style="fill:#ffee58;fill-opacity:1;stroke:none;stroke-width:0.264999"
         id="circle2840"
         cx="252.62743"
         cy="242.00002"
         r="1.3229166" />
      <circle
         style="fill:#ffee58;fill-opacity:1;stroke:none;stroke-width:0.264999"
         id="circle2842"
         cx="317.96906"
         cy="260.2627"
         r="1.0583333" />
      <circle
         style="display:inline;opacity:1;fill:url(#radialGradient1087);fill-opacity:1;stroke-width:0.265"
         id="path1071"
         cx="225.4234"
         cy="220.47502"
         r="7.9375" />
      <circle
         style="display:inline;opacity:1;fill:url(#radialGradient1107);fill-opacity:1;stroke-width:0.264998"
         id="path1099"
         cx="252.62743"
         cy="242.00002"
         r="7.9375" />
      <circle
         style="display:inline;opacity:1;fill:url(#radialGradient1117);fill-opacity:1;stroke-width:0.264999"
         id="path1109"
         cx="315.15329"
         cy="215.9133"
         r="7.9374995" />
      <circle
         style="display:inline;opacity:1;fill:url(#radialGradient1127);fill-opacity:1;stroke-width:0.264998"
         id="path1119"
         cx="317.96906"
         cy="260.2627"
         r="7.9375" />
    </g>
    <g
       inkscape:groupmode="layer"
       id="layer7"
       inkscape:label="Flames"
       style="display:inline"
       sodipodi:insensitive="true">
      <path
         id="path1453"
         style="fill:url(#linearGradient1462);fill-opacity:1;stroke-width:1.00157"
         d="m 928.20898,1165.6719 c -10.12614,0 -18.33398,8.2098 -18.33398,18.3359 0,6.0893 2.98002,39.9314 7.54883,65.9922 h 21.57226 c 4.56882,-26.0608 7.54883,-59.9028 7.54883,-65.9922 0,-10.1261 -8.20979,-18.3359 -18.33594,-18.3359 z"
         transform="scale(0.26458333)" />
      <path
         id="path1468"
         style="fill:url(#linearGradient1477);fill-opacity:1;stroke-width:1.00157"
         d="m 977.5,1170.1133 c -6.90357,0 -12.5,5.5964 -12.5,12.5 0,4.5843 2.47467,42.4258 6.1543,67.3867 h 12.6914 c 3.67963,-24.9609 6.1543,-62.8024 6.1543,-67.3867 0,-6.9036 -5.59643,-12.5 -12.5,-12.5 z"
         transform="scale(0.26458333)" />
      <path
         id="path1492"
         style="fill:url(#linearGradient1494);fill-opacity:1;stroke-width:1.00157"
         d="m 1022.5,1170.1133 c -6.9036,0 -12.5,5.5964 -12.5,12.5 0,4.5843 2.4747,42.4258 6.1543,67.3867 h 12.6914 c 3.6796,-24.9609 6.1543,-62.8024 6.1543,-67.3867 0,-6.9036 -5.5964,-12.5 -12.5,-12.5 z"
         transform="scale(0.26458333)" />
      <path
         id="path1496"
         style="fill:url(#linearGradient1498);fill-opacity:1;stroke-width:1.00157"
         d="m 1073.0195,1165.6719 c -10.1261,0 -18.334,8.2098 -18.334,18.3359 0,6.0894 2.98,39.9314 7.5489,65.9922 h 21.5703 c 4.5688,-26.0608 7.5508,-59.9028 7.5508,-65.9922 0,-10.1261 -8.2098,-18.3359 -18.336,-18.3359 z"
         transform="scale(0.26458333)" />
    </g>
    <g
       inkscape:groupmode="layer"
       id="layer3"
       inkscape:label="Rocket"
       style="display:inline"
       sodipodi:insensitive="true">
      <g
         id="g1336"
         transform="translate(293.76967,-143.93539)">
        <path
           id="path1258"
           style="fill:#972c1b;fill-opacity:1;stroke:none;stroke-width:0.999999px;stroke-linecap:butt;stroke-linejoin:miter;stroke-opacity:1"
           d="m -110.31055,1360.6602 c -44.76477,44.0999 -49.78906,138.8632 -49.78906,138.8632 L -160,1616.8223 c 14.68844,-28.4179 14.68945,-73.5625 14.68945,-73.5625 0,0 3.53197,-51.1819 35,-75 31.468043,23.8181 35.000003,75 35.000003,75 0,0 0.001,45.1446 14.689453,73.5625 l 0.09961,-117.3008 c 0,0 -5.025175,-94.761 -49.789066,-138.8613 z"
           transform="scale(0.26458333)" />
        <path
           id="path1260"
           style="fill:#c33422;fill-opacity:1;stroke:none;stroke-width:0.999999px;stroke-linecap:butt;stroke-linejoin:miter;stroke-opacity:1"
           d="m -110,1360 c -35.96355,44.0995 -40,138.8613 -40,138.8613 l 0.0606,87.5664 c 4.6171,-22.2934 4.6289,-43.1679 4.6289,-43.1679 0,0 3.53197,-51.1819 35,-75 31.468043,23.8181 35.000003,75 35.000003,75 0,0 0.0024,22.7251 5.248047,46.0781 L -70,1498.8613 c 0,0 -4.037326,-94.7612 -40,-138.8613 z"
           transform="scale(0.26458333)" />
        <path
           id="path1262"
           style="fill:#dc463a;fill-opacity:1;stroke:none;stroke-width:0.999999px;stroke-linecap:butt;stroke-linejoin:miter;stroke-opacity:1"
           d="m -110,1360 c -24.72417,42.0794 -27.5,132.498 -27.5,132.498 h 0.0547 v 15.7012 c 5.13184,-14.194 13.51312,-29.6292 27.13476,-39.9394 14.19179,10.7417 22.689507,27.0428 27.755862,41.7109 v -17.4492 L -82.5,1492.5 c 0,0 -2.775034,-90.4212 -27.5,-132.5 z"
           transform="scale(0.26458333)" />
        <path
           id="path1264"
           style="fill:#b9bfc6;fill-opacity:1;stroke:none;stroke-width:0.264999"
           d="m -29.186333,388.47707 c -8.325916,6.30187 -9.260416,19.84375 -9.260416,19.84375 v 42.33333 h 18.520834 v -42.33333 c 0,0 -0.9345,-13.54188 -9.260418,-19.84375 z" />
        <path
           id="path1266"
           style="fill:#eaebed;fill-opacity:1;stroke:none;stroke-width:0.264999"
           d="m -29.186333,391.58333 c -5.947082,5.98705 -6.614582,18.85239 -6.614582,18.85239 v 40.21843 h 13.229167 v -40.21843 c 0,0 -0.6675,-12.86534 -6.614585,-18.85239 z" />
        <rect
           style="opacity:0.995754;fill:#aab4bb;fill-opacity:1;stroke:none;stroke-width:0.264999"
           id="rect1268"
           width="14.993144"
           height="2.6458333"
           x="-56.003487"
           y="454.55829"
           rx="0.52503902"
           ry="0.52503902" />
        <rect
           style="opacity:0.995754;fill:#aab4bb;fill-opacity:1;stroke:none;stroke-width:0.264999"
           id="rect1270"
           width="14.993144"
           height="2.6458333"
           x="-17.362209"
           y="454.55829"
           rx="0.52503902"
           ry="0.52503902" />
        <path
           id="path1272"
           style="fill:#b9bfc6;fill-opacity:1;stroke:none;stroke-width:0.264583px;stroke-linecap:butt;stroke-linejoin:miter;stroke-opacity:1"
           d="m -48.507115,376.89843 c -5.550651,6.5242 -6.173269,20.54366 -6.173269,20.54366 v 57.11621 h 12.347051 v -57.11621 c 0,0 -0.623133,-14.01946 -6.173782,-20.54366 z" />
        <path
           id="path1274"
           style="fill:#eaebed;fill-opacity:1;stroke:none;stroke-width:0.264582px;stroke-linecap:butt;stroke-linejoin:miter;stroke-opacity:1"
           d="m -48.507115,379.61123 c -4.361207,6.29631 -4.850404,19.82603 -4.850404,19.82603 v 55.12105 h 9.701212 v -55.12105 c 0,0 -0.489602,-13.52972 -4.850808,-19.82603 z" />
        <path
           id="path1276"
           style="fill:#b9bfc6;fill-opacity:1;stroke:none;stroke-width:0.264583px;stroke-linecap:butt;stroke-linejoin:miter;stroke-opacity:1"
           d="m -9.866024,376.89842 c -5.550651,6.5242 -6.173269,20.54366 -6.173269,20.54366 v 57.11621 h 12.347051 v -57.11621 c 0,0 -0.623133,-14.01946 -6.173782,-20.54366 z" />
        <path
           id="path1278"
           style="fill:#eaebed;fill-opacity:1;stroke:none;stroke-width:0.264582px;stroke-linecap:butt;stroke-linejoin:miter;stroke-opacity:1"
           d="m -9.866024,379.61122 c -4.361207,6.29631 -4.850404,19.82603 -4.850404,19.82603 v 55.12105 h 9.701212 v -55.12105 c 0,0 -0.489602,-13.52972 -4.850808,-19.82603 z" />
        <g
           id="g1284">
          <path
             id="path1280"
             style="fill:#eaebed;fill-opacity:1;stroke:none;stroke-width:0.999999px;stroke-linecap:butt;stroke-linejoin:miter;stroke-opacity:1"
             d="m -145.31055,1564.4414 c 0,0 -2e-4,2.4501 -0.19922,6.5137 -3e-5,7e-4 4e-5,0 0,0 -0.0663,1.3541 -0.15554,2.8873 -0.27343,4.5684 -5e-5,7e-4 5e-5,0 0,0 -0.23588,3.3633 -0.5885,7.3198 -1.11914,11.6192 -0.24818,2.0108 -0.54148,4.1005 -0.87305,6.2363 -0.023,0.148 -0.0411,0.2911 -0.0645,0.4395 -1.1e-4,6e-4 1e-4,0 0,0 -1.08358,6.8726 -2.63058,14.2404 -4.8418,21.2637 -0.36858,1.1706 -0.75576,2.3309 -1.16211,3.4785 -2.1e-4,6e-4 2.1e-4,0 0,0 -0.8127,2.2953 -1.70286,4.5365 -2.67773,6.6933 -0.48745,1.0784 -0.9966,2.1339 -1.52735,3.166 -2.6e-4,6e-4 2.7e-4,0 0,0 -0.79611,1.5482 -1.64227,3.0387 -2.54101,4.4609 -0.29959,0.4741 -0.60457,0.9403 -0.91602,1.3985 -3e-4,4e-4 3e-4,0 0,0 -0.62259,0.9159 -1.27002,1.7982 -1.94141,2.6445 -3.2e-4,4e-4 3.2e-4,0 0,0 -0.67141,0.8464 -1.36779,1.6547 -2.08984,2.4238 -3.3e-4,4e-4 3.3e-4,0 0,0 -0.36089,0.3843 -0.72963,0.7575 -1.10351,1.1211 -0.37454,0.3642 -0.75478,0.7181 -1.14258,1.0605 -0.38747,0.3422 -0.78266,0.6728 -1.1836,0.9922 -0.40054,0.3191 -0.80843,0.6284 -1.22265,0.9238 -0.41465,0.2958 -0.83705,0.5786 -1.26563,0.8496 -0.42812,0.2708 -0.86438,0.5303 -1.30664,0.7754 -0.8855,0.4909 -1.79864,0.9301 -2.74219,1.3125 -0.61905,0.251 -1.2262,0.5234 -1.82617,0.8047 -0.12605,0.059 -0.25173,0.1193 -0.37695,0.1797 -0.52954,0.2555 -1.05169,0.5208 -1.56641,0.7988 -0.0771,0.042 -0.1557,0.081 -0.23242,0.1231 -0.5599,0.3074 -1.10987,0.63 -1.65234,0.9629 -0.13862,0.085 -0.27462,0.173 -0.41211,0.2597 -0.43,0.2711 -0.85439,0.5496 -1.27344,0.836 -0.13446,0.092 -0.27095,0.1819 -0.4043,0.2754 -0.5089,0.3565 -1.0092,0.7236 -1.50195,1.1015 -0.11835,0.091 -0.23413,0.1853 -0.35156,0.2774 -0.31706,0.2483 -0.62909,0.503 -0.93946,0.7597 -0.68207,0.5647 -1.35354,1.1433 -2.0039,1.7461 -6.8e-4,7e-4 -0.001,0 -0.002,0 -0.69183,0.6413 -1.36281,1.3061 -2.01953,1.9863 -0.10522,0.109 -0.20816,0.2202 -0.3125,0.3301 -0.56813,0.5986 -1.12395,1.2095 -1.66601,1.834 -0.081,0.093 -0.16369,0.1854 -0.24414,0.2793 -0.62529,0.7297 -1.23521,1.4745 -1.82617,2.2344 -0.57999,0.7457 -1.13979,1.507 -1.6875,2.2773 -0.073,0.1027 -0.14629,0.2055 -0.21875,0.3086 -0.54103,0.7697 -1.07017,1.5487 -1.58008,2.3379 -0.52187,0.8076 -1.02552,1.6238 -1.51563,2.4472 -0.0653,0.1098 -0.12863,0.2201 -0.19336,0.3301 -0.42972,0.7297 -0.84833,1.465 -1.2539,2.2032 -0.0547,0.099 -0.10984,0.1991 -0.16407,0.2988 -0.44362,0.8148 -0.87397,1.6326 -1.28906,2.4531 -0.57739,1.1425 -1.12277,2.2882 -1.64648,3.4316 -0.11123,0.2426 -0.21926,0.4844 -0.32813,0.7266 -0.49308,1.0987 -0.96834,2.1965 -1.41406,3.2832 -0.0123,0.03 -0.0268,0.06 -0.0391,0.09 -0.50817,1.2419 -0.9866,2.4721 -1.43555,3.6835 -1.35548,3.6578 -2.44767,7.1413 -3.31445,10.2383 -0.28893,1.0324 -0.55265,2.0224 -0.79297,2.961 h 65.67773 z"
             transform="scale(0.26458333)" />
          <path
             id="path1282"
             style="fill:#313340;fill-opacity:1;stroke:none;stroke-width:0.999999px;stroke-linecap:butt;stroke-linejoin:miter;stroke-opacity:1"
             d="m -145.31055,1543.2598 c 0,0 -1.9e-4,80.0017 -34.64843,94.0468 -25.6571,10.4006 -36.94751,44.127 -41.08985,60.9532 -8.8e-4,0 -10e-4,0.01 -0.002,0.01 -1.44996,5.8913 -2.04102,9.7461 -2.04102,9.7461 h 10 67.78125 v -9.7558 h -65.67773 c 3.84511,-15.0176 13.72966,-43.0427 35.48437,-51.8614 30.19356,-12.2392 30.19336,-81.957 30.19336,-81.957 z"
             transform="scale(0.26458333)" />
        </g>
        <path
           id="path1286"
           style="fill:#cdcfd0;fill-opacity:1;stroke:none;stroke-width:0.999999px;stroke-linecap:butt;stroke-linejoin:miter;stroke-opacity:1"
           d="m -132.81055,1644.1211 c -15.73401,11.909 -17.5,37.5 -17.5,37.5 v 20 15.6094 h 35 v -15.6094 -20 c 0,0 -1.76598,-25.591 -17.5,-37.5 z"
           transform="scale(0.26458333)" />
        <path
           id="path1288"
           style="fill:#eaebed;fill-opacity:1;stroke:none;stroke-width:0.999995px;stroke-linecap:butt;stroke-linejoin:miter;stroke-opacity:1"
           d="m -132.81055,1650.7598 c -11.23858,10.8888 -12.5,34.2871 -12.5,34.2871 v 18.2871 13.8965 h 25 v -13.8965 -18.2871 c 0,0 -1.26141,-23.3983 -12.5,-34.2871 z"
           transform="scale(0.26458333)" />
        <g
           id="g1294"
           transform="matrix(-1,0,0,1,-58.372672,-3.9687499e-5)">
          <path
             id="path1290"
             style="fill:#eaebed;fill-opacity:1;stroke:none;stroke-width:0.999999px;stroke-linecap:butt;stroke-linejoin:miter;stroke-opacity:1"
             d="m -145.31055,1564.4414 c 0,0 -2e-4,2.4501 -0.19922,6.5137 -3e-5,7e-4 4e-5,0 0,0 -0.0663,1.3541 -0.15554,2.8873 -0.27343,4.5684 -5e-5,7e-4 5e-5,0 0,0 -0.23588,3.3633 -0.5885,7.3198 -1.11914,11.6192 -0.24818,2.0108 -0.54148,4.1005 -0.87305,6.2363 -0.023,0.148 -0.0411,0.2911 -0.0645,0.4395 -1.1e-4,6e-4 1e-4,0 0,0 -1.08358,6.8726 -2.63058,14.2404 -4.8418,21.2637 -0.36858,1.1706 -0.75576,2.3309 -1.16211,3.4785 -2.1e-4,6e-4 2.1e-4,0 0,0 -0.8127,2.2953 -1.70286,4.5365 -2.67773,6.6933 -0.48745,1.0784 -0.9966,2.1339 -1.52735,3.166 -2.6e-4,6e-4 2.7e-4,0 0,0 -0.79611,1.5482 -1.64227,3.0387 -2.54101,4.4609 -0.29959,0.4741 -0.60457,0.9403 -0.91602,1.3985 -3e-4,4e-4 3e-4,0 0,0 -0.62259,0.9159 -1.27002,1.7982 -1.94141,2.6445 -3.2e-4,4e-4 3.2e-4,0 0,0 -0.67141,0.8464 -1.36779,1.6547 -2.08984,2.4238 -3.3e-4,4e-4 3.3e-4,0 0,0 -0.36089,0.3843 -0.72963,0.7575 -1.10351,1.1211 -0.37454,0.3642 -0.75478,0.7181 -1.14258,1.0605 -0.38747,0.3422 -0.78266,0.6728 -1.1836,0.9922 -0.40054,0.3191 -0.80843,0.6284 -1.22265,0.9238 -0.41465,0.2958 -0.83705,0.5786 -1.26563,0.8496 -0.42812,0.2708 -0.86438,0.5303 -1.30664,0.7754 -0.8855,0.4909 -1.79864,0.9301 -2.74219,1.3125 -0.61905,0.251 -1.2262,0.5234 -1.82617,0.8047 -0.12605,0.059 -0.25173,0.1193 -0.37695,0.1797 -0.52954,0.2555 -1.05169,0.5208 -1.56641,0.7988 -0.0771,0.042 -0.1557,0.081 -0.23242,0.1231 -0.5599,0.3074 -1.10987,0.63 -1.65234,0.9629 -0.13862,0.085 -0.27462,0.173 -0.41211,0.2597 -0.43,0.2711 -0.85439,0.5496 -1.27344,0.836 -0.13446,0.092 -0.27095,0.1819 -0.4043,0.2754 -0.5089,0.3565 -1.0092,0.7236 -1.50195,1.1015 -0.11835,0.091 -0.23413,0.1853 -0.35156,0.2774 -0.31706,0.2483 -0.62909,0.503 -0.93946,0.7597 -0.68207,0.5647 -1.35354,1.1433 -2.0039,1.7461 -6.8e-4,7e-4 -0.001,0 -0.002,0 -0.69183,0.6413 -1.36281,1.3061 -2.01953,1.9863 -0.10522,0.109 -0.20816,0.2202 -0.3125,0.3301 -0.56813,0.5986 -1.12395,1.2095 -1.66601,1.834 -0.081,0.093 -0.16369,0.1854 -0.24414,0.2793 -0.62529,0.7297 -1.23521,1.4745 -1.82617,2.2344 -0.57999,0.7457 -1.13979,1.507 -1.6875,2.2773 -0.073,0.1027 -0.14629,0.2055 -0.21875,0.3086 -0.54103,0.7697 -1.07017,1.5487 -1.58008,2.3379 -0.52187,0.8076 -1.02552,1.6238 -1.51563,2.4472 -0.0653,0.1098 -0.12863,0.2201 -0.19336,0.3301 -0.42972,0.7297 -0.84833,1.465 -1.2539,2.2032 -0.0547,0.099 -0.10984,0.1991 -0.16407,0.2988 -0.44362,0.8148 -0.87397,1.6326 -1.28906,2.4531 -0.57739,1.1425 -1.12277,2.2882 -1.64648,3.4316 -0.11123,0.2426 -0.21926,0.4844 -0.32813,0.7266 -0.49308,1.0987 -0.96834,2.1965 -1.41406,3.2832 -0.0123,0.03 -0.0268,0.06 -0.0391,0.09 -0.50817,1.2419 -0.9866,2.4721 -1.43555,3.6835 -1.35548,3.6578 -2.44767,7.1413 -3.31445,10.2383 -0.28893,1.0324 -0.55265,2.0224 -0.79297,2.961 h 65.67773 z"
             transform="scale(0.26458333)" />
          <path
             id="path1292"
             style="fill:#313340;fill-opacity:1;stroke:none;stroke-width:0.999999px;stroke-linecap:butt;stroke-linejoin:miter;stroke-opacity:1"
             d="m -145.31055,1543.2598 c 0,0 -1.9e-4,80.0017 -34.64843,94.0468 -25.6571,10.4006 -36.94751,44.127 -41.08985,60.9532 -8.8e-4,0 -10e-4,0.01 -0.002,0.01 -1.44996,5.8913 -2.04102,9.7461 -2.04102,9.7461 h 10 67.78125 v -9.7558 h -65.67773 c 3.84511,-15.0176 13.72966,-43.0427 35.48437,-51.8614 30.19356,-12.2392 30.19336,-81.957 30.19336,-81.957 z"
             transform="scale(0.26458333)" />
        </g>
        <path
           id="path1296"
           style="fill:#cdcfd0;fill-opacity:1;stroke:none;stroke-width:0.999999px;stroke-linecap:butt;stroke-linejoin:miter;stroke-opacity:1"
           d="m -87.810547,1644.1211 c -15.734013,11.909 -17.500003,37.5 -17.500003,37.5 v 20 15.6094 h 35.000003 v -15.6094 -20 c 0,0 -1.765982,-25.591 -17.5,-37.5 z"
           transform="scale(0.26458333)" />
        <path
           id="path1298"
           style="fill:#eaebed;fill-opacity:1;stroke:none;stroke-width:0.999995px;stroke-linecap:butt;stroke-linejoin:miter;stroke-opacity:1"
           d="m -87.810547,1650.7598 c -11.23858,10.8888 -12.500003,34.2871 -12.500003,34.2871 v 18.2871 13.8965 h 25.000003 v -13.8965 -18.2871 c 0,0 -1.261416,-23.3983 -12.5,-34.2871 z"
           transform="scale(0.26458333)" />
        <path
           id="path1300"
           style="opacity:0.995754;fill:#313340;fill-opacity:1;stroke:none;stroke-width:1.00158"
           d="m -105.31055,1717.2305 v 4.3906 c 0,2.77 2.23,5 5,5 h 25.000003 c 2.77,0 5,-2.23 5,-5 v -4.3906 z"
           transform="scale(0.26458333)" />
        <path
           id="path1302"
           style="opacity:0.995754;fill:#313340;fill-opacity:1;stroke:none;stroke-width:1.00158"
           d="m -150.31055,1717.2305 v 4.3906 c 0,2.77 2.23,5 5,5 h 25 c 2.77,0 5,-2.23 5,-5 v -4.3906 z"
           transform="scale(0.26458333)" />
        <path
           id="path1304"
           style="display:inline;fill:#313340;fill-opacity:1;stroke:none;stroke-width:0.264999"
           d="m -29.192533,399.49111 c -2.766371,0.003 -5.39004,1.22809 -7.165971,3.34915 l 2.39055,2.00194 c 1.173718,-1.40203 2.903601,-2.21832 4.732012,-2.23293 0.01654,-5e-5 0.03307,-5e-5 0.04961,0 1.845599,1.6e-4 3.596331,0.8178 4.781103,2.23293 l 2.391069,-2.00194 c -1.777325,-2.12273 -4.403632,-3.3491 -7.172172,-3.34915 z"
           sodipodi:nodetypes="sccscccss" />
        <path
           style="fill:#313340;fill-opacity:1;stroke:none;stroke-width:0.264583px;stroke-linecap:butt;stroke-linejoin:miter;stroke-opacity:1"
           d="m -42.333333,399.06068 h -12.347051 v 3.10598 h 12.347051 z"
           id="path1306" />
        <path
           style="fill:#313340;fill-opacity:1;stroke:none;stroke-width:0.264583px;stroke-linecap:butt;stroke-linejoin:miter;stroke-opacity:1"
           d="m -3.692242,399.06068 h -12.347051 v 3.10598 h 12.347051 z"
           id="path1308" />
      </g>
    </g>
  </g>
</svg>
